<svg width="213" height="131" viewBox="0 0 213 131" fill="none" xmlns="http://www.w3.org/2000/svg">
<path d="M146.632 1.1054C114.171 -6.95188 94.7585 31.6801 94.7585 31.6801C94.7585 31.6801 79.4103 24.9569 62.2974 31.6801C45.1845 38.4034 39.3019 59.5869 39.3019 59.5869C39.3019 59.5869 -7.18972 58.6798 0.958259 94.6971C9.10624 130.714 46.9492 116.734 46.9492 116.734C46.9492 116.734 59.57 128.473 79.4103 128.473C99.2506 128.473 110.535 121.27 110.535 121.27C110.535 121.27 119.091 132.956 140.75 130.714C162.408 128.473 167.382 114.066 167.382 114.066C167.382 114.066 207.597 127.566 212.517 87.4936C217.437 47.4211 183.158 43.846 183.158 43.846C183.158 43.846 179.093 9.16268 146.632 1.1054Z" fill="#FF595E" fill-opacity="0.5"/>
</svg>
