<!-- <?xml version="1.0" standalone="no"?>
<!DOCTYPE svg PUBLIC "-//W3C//DTD SVG 20010904//EN"
 "http://www.w3.org/TR/2001/REC-SVG-20010904/DTD/svg10.dtd"> -->
<svg version="1.0" xmlns="http://www.w3.org/2000/svg" height="150px" fill="#1982C4" viewBox="0 0 646.000000 853.000000"
 preserveAspectRatio="xMidYMid meet">

<g transform="translate(0.000000,853.000000) scale(0.100000,-0.100000)"
fill="#000000" stroke="none">
<path d="M6308 8503 c0 -10 -2 -22 -3 -28 -2 -5 -3 -22 -4 -37 -1 -21 -13 -34
-58 -61 -32 -19 -92 -50 -133 -68 -41 -18 -82 -38 -91 -46 -8 -7 -21 -13 -27
-13 -7 0 -31 -8 -55 -19 -40 -17 -99 -41 -142 -57 -11 -4 -27 -8 -35 -9 -25
-3 -104 -28 -115 -36 -19 -14 -160 -58 -197 -62 -20 -2 -43 -8 -50 -13 -27
-20 -233 -72 -244 -61 -3 3 0 16 8 29 53 94 56 233 6 292 -4 6 -17 21 -27 33
-22 28 -69 48 -141 61 -59 11 -207 -4 -285 -29 -22 -7 -43 -12 -47 -11 -5 1
-8 -2 -8 -8 0 -5 -8 -10 -18 -10 -23 0 -134 -115 -156 -162 -32 -67 -11 -184
42 -237 42 -43 113 -59 269 -60 75 -1 141 -5 146 -8 16 -10 -39 -48 -150 -102
-59 -29 -120 -60 -135 -67 -38 -20 -108 -45 -143 -51 -16 -3 -35 -9 -41 -14
-7 -5 -48 -16 -92 -24 -44 -7 -100 -19 -124 -25 -51 -14 -403 -15 -439 -2 -13
5 -46 10 -74 11 -49 2 -76 5 -125 16 -20 5 -29 0 -45 -24 -10 -16 -22 -29 -25
-29 -3 1 -21 -2 -40 -5 -19 -4 -46 -9 -60 -11 -60 -11 -98 -21 -145 -39 -27
-10 -70 -21 -95 -24 -59 -6 -70 -10 -70 -26 0 -18 98 -11 121 9 8 8 33 14 55
14 21 0 55 5 74 10 19 6 59 11 88 11 29 1 55 6 58 10 10 17 42 9 56 -13 8 -13
21 -40 27 -61 23 -70 40 -67 -435 -67 -237 0 -424 4 -424 9 0 14 23 28 60 36
19 4 46 12 60 18 14 5 30 11 37 13 7 1 27 9 44 18 18 9 44 16 58 17 14 0 64
14 111 30 47 17 99 33 115 36 17 3 39 12 50 19 11 7 38 20 60 27 23 8 71 29
107 46 68 32 89 37 102 24 32 -32 55 34 31 90 -11 26 -15 29 -20 15 -4 -10
-14 -18 -21 -18 -8 0 -17 -7 -20 -15 -4 -8 -11 -15 -17 -15 -5 0 -40 -14 -76
-32 -36 -17 -75 -33 -85 -35 -11 -2 -24 -8 -31 -13 -18 -15 -228 -90 -252 -90
-13 0 -23 -4 -23 -8 0 -4 -27 -14 -59 -20 -33 -7 -72 -19 -88 -27 -15 -8 -38
-15 -50 -15 -12 0 -25 -4 -28 -10 -3 -5 -14 -10 -23 -10 -17 0 -153 -50 -162
-60 -3 -3 -31 -14 -62 -24 -48 -16 -58 -23 -58 -42 0 -31 19 -35 113 -23 105
13 74 13 361 4 164 -5 260 -12 280 -20 17 -7 48 -13 69 -13 45 0 176 -40 196
-59 7 -8 23 -13 35 -11 17 2 22 11 24 43 4 47 16 63 60 82 37 15 38 22 15 66
-10 19 -18 56 -19 90 l-1 58 86 -4 c47 -2 97 -7 111 -11 40 -11 377 -11 392 0
7 6 30 12 51 13 20 1 49 6 63 11 14 6 37 10 52 10 25 0 148 37 217 66 129 53
292 134 318 158 13 12 35 27 50 35 15 8 27 18 27 23 0 4 5 8 12 8 6 0 21 8 32
18 27 24 99 52 134 52 15 0 33 5 39 11 6 6 30 13 54 15 23 3 50 9 58 13 30 15
136 49 176 56 22 4 42 10 45 13 3 4 43 19 90 34 268 87 315 103 318 110 2 5 9
8 15 8 21 0 296 142 325 168 23 21 31 38 36 76 3 27 7 50 8 51 2 1 12 7 23 13
17 10 13 11 -27 12 -39 0 -48 -3 -50 -17z m-1268 -155 c118 -36 142 -202 48
-332 -49 -68 -77 -76 -279 -77 -186 0 -217 10 -254 84 -29 59 -34 137 -10 157
9 7 13 15 11 17 -7 7 87 96 115 109 71 35 101 44 136 44 21 0 43 4 50 8 17 11
133 5 183 -10z m-1500 -1033 c7 -9 10 -18 6 -22 -8 -8 -86 18 -86 29 0 14 67
9 80 -7z"/>
<path d="M485 7992 c-56 -7 -68 -33 -39 -90 11 -23 23 -32 40 -32 28 0 142
-96 144 -121 0 -10 200 -209 268 -267 35 -30 69 -64 78 -77 16 -24 10 -55 -12
-55 -7 0 -17 -6 -21 -14 -4 -7 -26 -25 -48 -38 -22 -14 -50 -36 -63 -47 -39
-38 -175 -150 -214 -178 -23 -15 -53 -26 -75 -27 l-38 -1 -1 115 c-6 454 -18
639 -41 616 -4 -4 -9 -119 -18 -441 -3 -110 -8 -231 -12 -269 -7 -80 4 -96 69
-96 40 0 155 -49 221 -94 21 -14 43 -26 48 -26 6 0 22 -9 35 -19 14 -11 59
-34 102 -51 117 -49 267 -121 270 -131 2 -5 12 -9 22 -9 11 0 47 -20 82 -43
35 -24 85 -54 111 -67 27 -12 51 -29 54 -36 3 -8 21 -24 41 -36 21 -12 39 -25
42 -28 9 -12 234 -167 280 -193 25 -14 68 -38 97 -53 28 -15 54 -35 56 -45 3
-9 18 -24 34 -33 27 -14 33 -13 63 2 19 9 35 24 36 33 1 8 -9 47 -22 85 -14
38 -27 94 -30 124 -3 30 -7 66 -10 80 -3 14 -10 53 -15 88 -4 35 -11 68 -15
74 -13 21 -29 165 -41 378 -3 58 -11 116 -18 130 -8 14 -12 41 -10 60 4 41
-14 171 -25 185 -8 11 -21 95 -25 165 -3 62 -16 181 -21 201 -3 11 -20 19 -47
23 -69 11 -297 36 -372 41 -38 3 -86 10 -105 15 -19 6 -63 10 -98 10 -35 0
-73 6 -85 12 -12 7 -53 16 -92 20 -85 8 -137 18 -150 28 -5 4 -27 10 -47 14
-21 4 -38 11 -38 16 0 6 -7 10 -15 10 -8 0 -34 8 -58 19 -23 10 -55 24 -72 31
-16 7 -48 16 -70 20 -22 5 -53 12 -70 17 -16 5 -43 7 -60 5z m1331 -382 c8
-25 16 -85 18 -135 2 -49 9 -103 15 -118 6 -16 11 -44 11 -63 0 -19 7 -51 15
-70 8 -20 14 -45 14 -57 -2 -48 12 -240 18 -251 4 -6 11 -63 16 -126 9 -133
12 -159 20 -180 4 -8 9 -39 12 -68 3 -30 8 -58 11 -64 19 -30 23 -140 7 -145
-7 -3 -13 2 -13 11 0 8 -6 19 -13 23 -8 4 -24 23 -38 42 -41 59 -53 73 -99
121 -25 25 -57 64 -72 86 -16 22 -48 61 -73 86 -25 26 -45 50 -45 53 0 4 -26
33 -57 64 -68 67 -98 101 -136 157 -15 23 -44 59 -63 80 -19 22 -42 51 -50 67
-8 15 -19 27 -24 27 -6 0 -10 5 -10 11 0 6 -11 20 -25 30 -21 17 -85 103 -85
115 0 2 -9 13 -20 24 -12 12 -17 26 -13 37 9 22 52 60 78 69 11 4 22 9 25 13
14 17 244 135 295 151 22 7 44 16 50 21 5 5 20 9 35 9 14 1 36 7 50 15 15 9
46 14 79 12 l54 -2 13 -45z"/>
<path d="M3098 7453 c7 -3 16 -2 19 1 4 3 -2 6 -13 5 -11 0 -14 -3 -6 -6z"/>
<path d="M6409 7091 c-21 -7 -121 -72 -139 -91 -14 -14 -70 -50 -80 -50 -5 0
-10 -4 -10 -9 0 -5 -14 -14 -31 -21 -16 -7 -74 -42 -127 -76 -53 -35 -98 -64
-101 -64 -4 0 -19 -11 -35 -25 -16 -14 -32 -25 -36 -25 -3 0 -17 -10 -29 -21
-33 -31 -170 -139 -176 -139 -3 0 -14 -8 -24 -17 -11 -10 -43 -34 -71 -53 -69
-47 -160 -114 -185 -137 -11 -10 -38 -31 -60 -47 -22 -17 -42 -33 -45 -36 -3
-3 -26 -22 -51 -41 -26 -19 -66 -57 -89 -84 -24 -28 -47 -51 -51 -53 -5 -2 -9
-8 -9 -12 0 -5 -10 -20 -22 -33 -13 -14 -36 -41 -53 -61 -16 -21 -43 -51 -59
-69 -15 -18 -33 -44 -38 -59 -6 -16 -14 -28 -20 -28 -5 0 -7 -4 -4 -9 3 -4 -6
-23 -20 -42 -31 -41 -64 -115 -64 -141 0 -10 -7 -21 -15 -24 -8 -4 -15 -14
-15 -24 0 -19 -126 -154 -171 -184 -19 -12 -44 -16 -87 -15 -53 2 -66 -2 -98
-26 -39 -30 -94 -109 -94 -136 0 -62 -143 -248 -202 -263 -24 -5 -28 -12 -28
-41 l0 -35 84 0 c51 0 101 6 127 16 24 8 71 20 104 24 33 5 61 14 63 20 2 5
12 10 23 10 20 0 94 36 122 60 25 21 50 77 43 95 -3 9 -2 13 4 10 6 -3 10 4
10 17 0 15 18 40 48 69 77 75 151 165 164 199 3 8 45 37 94 64 49 27 107 63
129 80 22 17 46 35 54 41 24 16 345 337 371 371 14 17 32 41 40 54 20 31 106
125 154 169 72 66 101 98 146 160 24 33 48 61 52 61 5 0 8 4 8 9 0 4 26 36 58
69 31 34 84 91 117 128 33 37 73 79 89 93 16 14 43 42 60 61 90 102 185 190
205 190 19 0 21 5 21 65 0 69 -2 70 -51 56z m-331 -348 c-6 -7 -8 -13 -4 -13
3 0 -16 -19 -42 -42 -26 -24 -61 -59 -79 -78 -17 -19 -48 -52 -67 -74 -20 -21
-36 -44 -36 -50 0 -14 -126 -164 -245 -291 -52 -55 -104 -113 -117 -130 -12
-16 -45 -55 -74 -85 -28 -30 -84 -91 -125 -135 -41 -44 -78 -82 -82 -84 -5 -1
-34 -27 -65 -57 -31 -30 -63 -54 -69 -54 -7 0 -13 -7 -13 -15 0 -8 -4 -15 -9
-15 -6 0 -22 -11 -37 -25 -15 -14 -33 -25 -40 -25 -8 0 -14 -4 -14 -9 0 -5 -8
-11 -17 -15 -10 -3 -25 -11 -35 -18 -11 -8 -23 -9 -38 -2 -21 9 -21 10 14 56
20 26 36 55 36 65 0 11 5 24 11 30 14 14 35 49 51 86 7 15 16 27 20 27 4 0 8
6 8 13 0 8 11 24 25 37 14 13 25 27 25 32 0 4 17 24 39 43 21 19 54 57 72 84
19 27 45 56 59 64 14 9 37 26 51 39 13 13 55 47 91 76 37 29 68 56 70 60 2 4
30 30 62 57 33 28 111 102 175 165 64 63 139 133 165 155 27 22 55 46 62 53 7
6 17 12 22 12 6 0 12 4 14 9 5 14 110 68 130 68 13 -1 14 -4 6 -14z m-1302
-1287 c5 -14 0 -24 -36 -65 -9 -9 -29 -34 -44 -54 -31 -40 -45 -43 -57 -10 -5
14 0 28 17 49 76 90 108 111 120 80z m-228 -122 c6 -11 0 -24 -23 -48 -17 -19
-32 -41 -32 -49 0 -24 -56 -105 -83 -119 -13 -7 -38 -25 -53 -40 -32 -29 -64
-44 -75 -33 -4 4 0 12 8 18 17 13 73 97 65 97 -6 0 49 103 78 147 12 18 29 34
37 37 35 9 70 5 78 -10z"/>
<path d="M4399 6485 c-4 -3 -38 -8 -75 -11 -63 -5 -105 -19 -191 -62 -68 -34
-165 -146 -178 -206 -1 -6 -6 -20 -11 -31 -13 -28 -11 -204 1 -213 6 -4 12
-17 12 -29 3 -44 67 -135 131 -185 86 -68 222 -85 347 -43 124 41 259 117 315
176 51 54 56 61 84 117 35 69 49 169 34 249 -8 42 -82 144 -119 163 -55 29
-148 57 -214 65 -33 4 -76 9 -95 12 -20 2 -38 2 -41 -2z m160 -121 c2 -2 -6
-4 -18 -4 -12 0 -31 -9 -43 -20 -12 -11 -28 -20 -35 -20 -31 0 -108 -47 -164
-99 -32 -31 -59 -59 -59 -63 0 -4 -11 -19 -24 -33 -34 -36 -70 -157 -67 -222
2 -41 -1 -53 -13 -53 -28 0 -46 12 -68 48 -35 57 -25 120 45 260 28 57 105
142 128 142 5 0 9 4 9 8 0 9 95 59 125 66 21 4 177 -4 184 -10z m-405 -62 c-3
-9 -23 -37 -44 -62 -22 -25 -40 -53 -40 -62 0 -10 -5 -18 -10 -18 -6 0 -14
-10 -19 -22 -6 -17 -9 -18 -14 -6 -7 19 42 127 67 148 10 8 28 20 40 26 11 7
22 12 23 13 0 1 -1 -7 -3 -17z m516 -51 c3 -4 15 -13 28 -20 12 -6 22 -18 22
-25 0 -8 7 -19 15 -26 22 -18 19 -57 -5 -70 -16 -9 -22 -8 -26 4 -16 41 -146
37 -206 -5 -14 -11 -29 -19 -32 -19 -8 0 -68 -62 -93 -98 -27 -37 -31 -112 -8
-156 8 -15 15 -39 15 -52 0 -22 -4 -24 -49 -24 -165 0 -172 227 -11 402 69 76
112 102 180 108 59 6 161 -6 170 -19z m-23 -166 c18 -12 21 -24 19 -79 -1 -54
-5 -69 -26 -92 -36 -39 -139 -104 -166 -104 -28 0 -63 47 -71 94 -4 28 0 41
28 75 41 52 91 91 138 107 47 17 52 17 78 -1z"/>
<path d="M1990 6040 c0 -5 -8 -10 -18 -10 -10 0 -27 -7 -38 -15 -10 -8 -25
-15 -31 -15 -7 0 -46 -16 -88 -34 -76 -36 -163 -57 -200 -50 -38 8 -510 4
-545 -4 -19 -5 -69 -10 -110 -11 -41 -1 -78 -5 -82 -7 -5 -3 -38 -9 -76 -14
-82 -11 -155 -26 -179 -38 -10 -5 -40 -20 -68 -32 -75 -34 -168 -103 -219
-163 -25 -30 -46 -59 -46 -65 0 -6 -6 -17 -13 -24 -13 -15 -38 -63 -62 -123
-10 -26 -13 -49 -8 -70 4 -16 8 -34 9 -40 11 -98 32 -150 87 -209 31 -33 94
-76 111 -76 8 0 16 -6 19 -13 8 -20 162 -94 292 -139 88 -31 212 -99 282 -155
56 -46 74 -94 75 -207 0 -83 -2 -97 -31 -156 -35 -73 -83 -123 -264 -273 -70
-59 -188 -147 -196 -147 -26 0 -329 -203 -330 -221 -1 -3 -22 -28 -47 -55 -41
-44 -99 -135 -99 -155 0 -4 -6 -14 -12 -20 -20 -20 -18 -203 2 -219 8 -7 12
-16 9 -21 -9 -16 167 -183 221 -208 28 -13 62 -30 77 -38 14 -7 35 -13 45 -13
10 0 24 -5 29 -10 6 -6 21 -12 34 -15 38 -7 94 -27 105 -36 5 -5 21 -9 35 -9
14 0 35 -7 46 -15 10 -8 28 -15 38 -15 18 0 42 -9 146 -58 36 -17 145 -121
136 -130 -3 -2 1 -14 9 -26 24 -33 20 -200 -5 -251 -32 -65 -67 -119 -79 -123
-6 -2 -11 -9 -11 -16 0 -12 -21 -44 -52 -77 -10 -11 -18 -21 -18 -24 0 -9 -65
-68 -100 -89 -68 -42 -207 -89 -295 -100 -134 -17 -151 -17 -185 -2 -46 19
-140 108 -140 131 0 10 -6 26 -14 34 -8 9 -16 47 -19 86 -3 39 -6 75 -7 80 -6
23 25 73 66 108 40 33 43 37 22 37 -32 0 -144 -67 -156 -94 -40 -88 -34 -303
12 -396 48 -98 67 -116 168 -156 69 -27 203 -34 255 -13 15 6 46 13 68 16 22
2 49 8 60 12 11 5 40 14 65 20 25 7 59 18 75 26 17 7 50 21 75 31 69 28 193
159 263 276 31 53 57 101 57 106 0 6 12 34 27 64 23 44 27 67 29 143 2 94 -17
197 -42 226 -8 8 -14 19 -14 23 0 4 -15 27 -32 51 -34 44 -151 128 -223 158
-75 31 -100 40 -107 39 -5 -1 -8 2 -8 8 0 5 -8 10 -19 10 -17 0 -108 36 -153
61 -10 5 -26 9 -37 9 -10 0 -51 16 -90 35 -39 19 -74 35 -78 35 -5 0 -28 23
-53 52 -25 28 -53 60 -63 70 -9 10 -17 24 -17 32 0 8 -5 18 -10 21 -13 8 -13
52 0 60 6 3 10 19 10 35 0 72 148 233 295 320 197 116 270 171 414 310 34 33
133 149 148 175 29 48 53 110 53 139 0 17 4 45 9 63 5 18 6 48 1 70 -5 21 -10
54 -12 73 -3 19 -9 46 -15 60 -6 14 -14 34 -18 45 -3 11 -7 22 -8 24 -6 14
-96 89 -122 101 -16 8 -32 18 -35 22 -10 13 -156 84 -220 107 -68 24 -93 35
-172 70 -26 11 -51 21 -54 21 -13 0 -134 103 -152 128 -10 15 -24 45 -31 67
-17 56 1 168 35 215 15 19 33 46 41 60 9 14 40 43 70 65 30 22 60 45 68 52 12
11 94 51 140 67 21 8 84 20 190 36 33 5 71 12 85 15 14 4 142 8 285 11 353 6
456 17 503 54 14 11 29 20 35 20 14 0 112 75 164 126 29 28 43 50 43 68 0 14
-2 26 -5 26 -3 0 -5 -4 -5 -10z"/>
<path d="M3483 5947 c-53 -20 -182 -127 -353 -294 -121 -118 -118 -115 -190
-174 -61 -49 -168 -155 -245 -243 -70 -79 -81 -111 -43 -125 30 -11 56 -3 63
20 7 21 158 175 293 299 110 100 133 123 188 181 54 58 153 149 162 149 4 0
23 15 42 33 19 18 56 48 82 67 50 35 63 56 52 84 -7 19 -9 19 -51 3z"/>
<path d="M3468 5539 c-16 -4 -28 -5 -28 -3 0 2 -17 -6 -37 -18 -21 -12 -47
-26 -58 -32 -11 -6 -67 -43 -125 -81 -58 -38 -108 -70 -112 -70 -3 0 -53 -36
-110 -81 -57 -44 -116 -89 -133 -100 -16 -10 -34 -24 -40 -29 -5 -6 -28 -23
-50 -37 -145 -92 -192 -128 -290 -223 -60 -59 -127 -119 -147 -135 -61 -45
-108 -89 -108 -100 0 -5 -4 -10 -9 -10 -5 0 -23 -22 -41 -50 -18 -27 -36 -50
-41 -50 -5 0 -9 -4 -9 -9 0 -13 -160 -256 -188 -286 -6 -8 -12 -17 -12 -21 0
-7 -71 -119 -90 -141 -6 -7 -10 -15 -9 -18 1 -8 -18 -57 -47 -123 -13 -29 -24
-55 -24 -58 0 -3 -16 -38 -35 -78 -19 -40 -35 -78 -35 -85 0 -12 -44 -124 -60
-153 -6 -10 -10 -23 -10 -29 0 -6 -6 -25 -13 -42 -26 -60 -73 -202 -81 -242
-2 -11 -16 -56 -30 -100 -14 -44 -26 -89 -26 -100 0 -12 -4 -25 -10 -31 -5 -5
-13 -41 -16 -79 -3 -39 -9 -74 -12 -80 -4 -5 -7 -69 -7 -142 0 -119 2 -132 18
-137 26 -7 44 30 51 104 8 95 23 211 31 240 4 14 11 48 16 75 4 28 12 67 18
88 5 20 7 37 4 37 -2 0 3 10 11 22 9 12 16 33 16 46 0 13 6 35 14 50 8 15 15
43 17 62 2 19 9 44 16 55 7 11 13 30 13 42 0 13 4 23 9 23 5 0 13 15 16 33 4
17 12 41 18 52 6 11 12 25 13 30 1 6 11 30 22 55 20 43 43 104 62 162 5 16 17
40 28 55 11 16 23 39 27 53 4 14 16 37 26 51 10 14 21 38 25 55 4 16 20 48 36
71 15 23 28 44 28 47 0 3 17 33 37 68 21 35 36 66 35 71 -1 4 2 7 7 7 5 0 12
9 16 20 3 11 38 50 76 87 39 38 77 81 85 96 28 53 185 217 208 217 9 0 16 5
16 10 0 6 5 10 10 10 17 0 11 -28 -7 -39 -10 -6 -15 -11 -11 -11 8 0 -48 -81
-77 -111 -9 -9 -33 -41 -55 -70 -22 -30 -45 -61 -52 -69 -7 -8 -13 -17 -13
-20 -1 -3 -12 -23 -26 -45 -14 -22 -33 -58 -43 -80 -10 -22 -23 -53 -31 -70
-7 -16 -24 -55 -38 -85 -38 -81 -68 -177 -61 -194 3 -9 1 -16 -5 -16 -6 0 -11
-14 -11 -32 0 -17 -7 -39 -15 -48 -8 -9 -16 -25 -18 -36 -2 -10 -8 -30 -14
-44 -6 -14 -17 -45 -24 -70 -7 -25 -14 -49 -15 -55 -18 -63 -45 -168 -68 -265
-8 -36 -19 -78 -25 -93 -6 -15 -8 -27 -5 -27 2 0 0 -9 -6 -19 -5 -11 -12 -37
-15 -58 -3 -21 -10 -49 -15 -63 -51 -145 -45 -409 15 -660 9 -36 18 -77 20
-93 18 -111 82 -338 112 -397 7 -14 13 -31 13 -38 0 -8 9 -25 20 -39 26 -34
26 -80 0 -88 -11 -3 -20 -10 -20 -15 0 -5 -8 -11 -17 -14 -10 -3 -30 -16 -44
-28 -15 -13 -48 -41 -74 -63 -25 -21 -58 -50 -72 -62 -13 -13 -49 -42 -79 -65
-30 -22 -54 -48 -54 -57 0 -10 -23 -62 -51 -117 -28 -54 -50 -99 -49 -99 3 0
-21 -61 -38 -95 -15 -33 -99 -167 -168 -269 -16 -24 -34 -52 -40 -63 -6 -11
-21 -30 -33 -44 -11 -13 -21 -27 -21 -31 0 -4 -23 -52 -51 -108 -29 -55 -51
-101 -50 -103 1 -1 -10 -25 -24 -52 -14 -28 -23 -50 -19 -50 3 0 -4 -12 -15
-26 -12 -15 -21 -33 -21 -40 0 -8 -5 -14 -11 -14 -5 0 -8 -4 -5 -9 4 -5 2 -11
-2 -13 -10 -4 -67 -100 -83 -140 -6 -16 -15 -28 -20 -28 -5 0 -9 -7 -9 -16 0
-9 -9 -27 -20 -41 -32 -41 -27 -63 15 -63 27 0 35 4 35 18 0 9 7 26 15 36 8
11 15 31 15 45 0 13 6 32 13 40 41 47 127 184 127 200 0 11 3 21 8 23 4 2 18
30 31 63 13 33 32 70 42 83 10 13 21 36 24 52 4 17 10 30 15 30 4 0 13 12 19
28 14 34 59 114 69 122 20 14 108 164 159 270 108 222 143 299 143 311 0 8 10
20 22 28 18 11 23 11 26 1 8 -22 82 -99 118 -121 19 -11 34 -27 34 -35 0 -8
-22 -44 -50 -80 -27 -36 -50 -72 -50 -80 0 -8 -4 -14 -9 -14 -5 0 -14 -12 -20
-27 -14 -33 -69 -130 -93 -163 -10 -14 -18 -30 -18 -36 0 -7 -4 -14 -8 -16
-11 -4 -92 -165 -117 -230 -10 -27 -22 -48 -26 -48 -5 0 -9 -3 -8 -8 2 -14
-13 -52 -21 -52 -4 0 -11 -11 -14 -25 -3 -13 -17 -41 -31 -61 -14 -20 -25 -43
-25 -50 0 -7 -3 -14 -7 -16 -5 -2 -19 -25 -32 -53 -14 -27 -27 -52 -30 -55 -7
-6 -91 -167 -91 -175 0 -3 50 -5 111 -5 l110 0 20 43 c25 51 37 73 65 112 11
17 44 77 73 135 28 58 61 119 71 135 11 17 33 59 50 95 38 82 56 114 92 168
15 24 28 49 28 56 0 8 7 19 15 26 8 7 15 16 15 20 0 17 90 165 126 207 39 46
56 71 74 113 6 14 21 43 32 65 14 26 22 62 24 101 1 34 7 71 13 82 16 31 15
416 -1 434 -13 13 -51 89 -80 158 -27 63 -48 137 -48 166 0 16 -6 40 -13 54
-7 14 -14 43 -16 65 -2 22 -7 47 -12 56 -11 21 -36 139 -55 254 -21 129 -17
351 7 451 11 43 24 97 29 119 19 82 36 135 48 147 7 7 12 28 12 47 0 20 7 45
15 55 8 11 15 31 15 44 0 13 5 33 12 45 6 12 15 40 20 62 15 72 18 82 33 118
8 20 15 47 15 59 0 13 7 31 15 41 7 11 17 36 20 58 4 21 11 41 16 45 5 3 9 26
9 52 0 26 7 56 15 66 8 11 15 30 15 43 0 13 4 31 10 41 5 9 24 55 42 102 18
47 36 90 41 95 4 6 35 52 69 104 34 51 81 114 105 140 23 25 43 52 43 59 0 7
26 47 58 89 31 41 71 97 88 124 17 27 38 57 46 66 8 10 18 30 22 45 4 17 33
48 83 88 43 34 92 72 108 86 17 13 62 45 100 71 39 26 72 51 75 54 3 4 43 33
90 65 47 32 89 61 95 66 27 21 147 109 208 152 37 26 67 55 67 64 0 30 -13 39
-42 31z m-1531 -3963 c13 -13 38 -27 57 -30 40 -8 51 -30 36 -71 -6 -15 -8
-55 -5 -89 4 -47 1 -69 -13 -96 -16 -31 -22 -35 -54 -33 -57 3 -163 58 -198
102 -16 22 -30 46 -30 55 0 17 162 186 177 186 4 0 18 -11 30 -24z"/>
<path d="M2142 5481 c-23 -4 -48 -13 -54 -19 -7 -7 -23 -12 -36 -12 -13 0 -37
-10 -54 -21 -39 -28 -108 -98 -108 -110 0 -5 -4 -9 -9 -9 -5 0 -24 -30 -42
-66 -29 -60 -32 -75 -32 -163 -1 -135 30 -184 161 -251 61 -31 66 -32 160 -28
92 5 100 7 168 47 87 51 191 149 199 188 4 15 11 38 16 51 15 39 12 183 -5
225 -9 20 -21 37 -26 37 -6 0 -10 7 -10 15 0 8 -6 15 -13 15 -7 0 -20 8 -28
18 -25 27 -58 52 -69 52 -6 0 -21 7 -34 15 -27 18 -125 27 -184 16z m187 -108
c29 -14 65 -41 81 -59 27 -31 28 -37 29 -131 0 -90 -2 -101 -27 -137 -29 -42
-104 -101 -165 -129 -46 -21 -133 -22 -167 -2 -14 8 -34 18 -45 24 -23 10 -65
55 -86 91 -8 14 -16 50 -18 82 -3 58 9 88 54 134 11 12 32 35 47 51 15 17 43
38 63 47 19 9 35 21 35 26 0 6 10 10 23 10 12 0 29 5 37 10 27 18 87 10 139
-17z"/>
<path d="M5863 5083 c-17 -6 -17 -87 1 -121 16 -32 15 -128 -2 -159 -7 -12
-12 -32 -12 -45 0 -30 -47 -176 -66 -205 -8 -12 -14 -31 -14 -41 0 -11 -25
-53 -55 -95 -30 -41 -55 -77 -55 -79 0 -2 -24 -29 -54 -60 -46 -48 -160 -128
-181 -128 -4 0 -21 -6 -38 -13 -110 -47 -178 -58 -361 -58 -133 1 -241 13
-278 32 -10 5 -26 9 -35 9 -10 0 -31 14 -47 31 -16 16 -42 33 -58 36 -30 6
-57 29 -123 105 -22 26 -70 79 -107 119 -38 40 -68 76 -68 80 0 4 -6 14 -13
21 -18 20 -87 135 -87 146 0 6 -3 12 -7 14 -5 2 -19 24 -33 50 -35 68 -69 73
-70 11 0 -22 84 -193 100 -203 4 -3 10 -14 14 -26 3 -12 20 -34 36 -50 16 -16
30 -33 30 -37 0 -5 6 -14 13 -21 6 -8 48 -53 92 -102 44 -49 94 -101 110 -116
31 -29 239 -138 262 -138 7 0 13 -4 13 -8 0 -4 17 -9 37 -10 20 -2 42 -7 48
-12 5 -4 33 -9 60 -11 28 -1 61 -6 75 -11 26 -10 213 -13 227 -5 4 3 26 8 48
11 53 9 112 25 155 43 50 21 114 54 120 62 3 3 27 24 55 46 73 59 175 166 175
184 0 5 9 16 20 26 11 10 20 24 20 32 0 7 4 13 9 13 5 0 24 44 42 98 17 53 35
102 40 108 5 6 10 53 13 105 2 52 10 116 17 142 10 36 11 52 2 66 -6 10 -14
39 -18 65 -4 25 -11 46 -15 46 -4 0 -11 13 -16 29 -5 16 -14 26 -21 24z"/>
<path d="M5007 4644 c-36 -16 -67 -39 -127 -94 -24 -22 -87 -130 -77 -130 3 0
1 -18 -3 -41 -16 -86 34 -165 128 -202 88 -35 295 -8 369 48 81 63 103 89 112
138 18 98 -24 185 -109 228 -14 7 -32 19 -40 25 -8 7 -19 13 -25 14 -5 2 -20
6 -33 11 -48 19 -155 20 -195 3z m173 -103 c94 -33 160 -84 160 -127 0 -57
-68 -134 -140 -157 -69 -22 -137 -35 -169 -31 -51 6 -124 45 -136 72 -5 12
-12 22 -16 22 -10 0 12 103 29 140 34 69 90 110 152 110 19 0 73 -13 120 -29z"/>
<path d="M4785 3855 c13 -31 42 -74 64 -94 21 -20 41 -43 45 -51 3 -8 15 -28
26 -45 11 -16 24 -39 29 -51 5 -11 24 -42 42 -69 40 -59 69 -115 69 -131 0 -7
4 -14 9 -16 4 -1 20 -41 34 -88 44 -147 28 -227 -72 -359 -23 -30 -41 -60 -41
-67 0 -7 -7 -20 -16 -28 -8 -9 -13 -16 -10 -16 4 0 -24 -31 -61 -69 -38 -37
-77 -79 -89 -92 -29 -34 -123 -113 -144 -121 -10 -4 -21 -12 -25 -18 -7 -12
-55 -34 -67 -32 -5 1 -8 -2 -8 -7 0 -16 -307 -161 -341 -161 -10 0 -21 -4 -24
-10 -3 -5 -16 -10 -29 -10 -12 0 -26 -4 -32 -9 -18 -18 -207 -61 -294 -68 -50
-3 -90 -9 -90 -13 0 -21 -330 -30 -565 -15 -106 6 -118 6 -107 -8 27 -32 101
-40 389 -42 156 -1 286 -4 289 -8 4 -3 24 3 45 13 21 11 49 20 62 20 13 0 27
3 31 8 4 4 11 7 14 8 53 4 123 17 127 25 4 5 17 9 30 9 13 0 36 5 52 12 15 6
30 12 33 12 3 1 10 4 15 7 6 4 27 10 49 13 21 4 46 11 55 16 9 5 57 28 106 51
50 24 92 45 95 48 3 4 14 7 25 9 19 3 52 15 87 33 10 5 26 9 37 9 11 0 26 6
34 14 7 8 37 26 65 41 28 14 52 30 54 33 2 4 26 25 53 47 28 22 56 48 64 59 8
10 35 42 62 70 62 67 79 90 118 159 44 77 66 77 56 0 -4 -31 -15 -88 -25 -127
-10 -39 -20 -87 -21 -106 -2 -19 -8 -42 -14 -50 -6 -8 -12 -31 -14 -50 -2 -19
-9 -43 -17 -54 -8 -11 -14 -35 -14 -52 0 -17 -7 -37 -15 -44 -8 -7 -15 -19
-15 -28 0 -20 -49 -118 -66 -133 -8 -6 -14 -20 -14 -30 0 -11 -4 -19 -9 -19
-5 0 -28 -37 -51 -82 -23 -46 -51 -95 -61 -110 -10 -14 -19 -30 -19 -35 -1 -7
-84 -73 -104 -82 -18 -7 -46 -41 -46 -56 0 -23 22 -18 75 18 27 17 57 37 67
43 32 19 88 68 88 77 0 5 25 37 55 72 30 34 55 67 55 73 0 6 3 12 8 14 18 8
60 77 73 121 7 26 16 47 20 47 7 0 49 80 49 94 0 4 14 37 30 73 17 35 30 75
30 87 0 13 6 39 14 58 8 19 21 72 30 119 14 78 18 120 31 349 6 98 13 146 24
169 5 9 16 43 26 76 32 111 50 160 62 173 7 7 13 20 13 28 0 8 5 14 10 14 6 0
10 8 10 17 0 9 6 24 14 32 8 9 17 29 20 44 3 16 9 34 15 40 5 7 11 26 14 43 3
17 10 41 17 54 14 26 6 96 -15 123 -21 29 -59 19 -63 -18 -2 -16 -10 -38 -18
-49 -8 -11 -14 -31 -14 -43 0 -13 -4 -23 -10 -23 -5 0 -12 -12 -16 -27 -14
-60 -45 -148 -64 -180 -11 -19 -20 -42 -20 -52 0 -9 -7 -26 -15 -37 -8 -10
-15 -30 -15 -43 0 -37 -25 -10 -40 44 -7 25 -25 71 -41 102 -16 32 -29 64 -29
71 0 24 -66 105 -174 215 -68 70 -70 71 -128 75 l-59 4 26 -57z"/>
<path d="M5797 2053 c-3 -10 -8 -40 -12 -66 -4 -27 -8 -58 -11 -70 -2 -11 -6
-66 -10 -121 -4 -56 -10 -109 -15 -118 -5 -9 -9 -36 -9 -60 0 -24 -5 -49 -11
-55 -6 -6 -13 -38 -16 -70 -6 -92 3 -87 -136 -78 -67 4 -171 10 -232 14 l-110
6 -9 65 c-12 88 -13 263 -3 271 5 4 10 32 10 64 2 50 -1 58 -19 65 -20 8 -21
6 -14 -33 4 -23 7 -55 6 -72 -1 -24 -5 -30 -24 -29 -18 0 -23 -6 -28 -38 -11
-64 -9 -63 -291 -60 -247 3 -253 3 -253 -17 0 -25 13 -33 56 -33 19 0 37 -4
40 -9 3 -5 -12 -9 -32 -9 -21 0 -45 -7 -54 -15 -10 -9 -37 -18 -61 -21 -23 -3
-46 -7 -51 -10 -14 -9 -37 -68 -40 -104 l-3 -35 -120 -6 c-66 -3 -133 -9 -150
-12 -29 -5 -170 -9 -304 -8 l-64 1 8 38 c3 20 8 46 10 57 2 11 4 20 5 20 4 0
12 44 16 85 2 25 6 54 8 65 6 25 -6 47 -25 43 -30 -7 -51 -38 -57 -83 -4 -37
-10 -48 -29 -56 -13 -5 -26 -16 -29 -24 -11 -28 -20 -15 -16 21 3 24 0 39 -9
45 -11 8 -10 12 5 24 26 20 18 26 -27 18 -22 -3 -42 -14 -48 -24 -6 -12 -6
-19 0 -19 5 0 12 8 14 18 3 12 5 10 6 -7 1 -21 -2 -23 -34 -19 -19 2 -35 0
-35 -5 0 -5 -11 -7 -25 -5 -14 3 -25 1 -25 -3 0 -5 -18 -12 -40 -15 -22 -4
-43 -11 -46 -15 -3 -5 -14 -9 -25 -9 -41 0 -55 -108 -17 -134 12 -8 25 -13 30
-10 14 9 9 -23 -7 -36 -8 -7 -15 -18 -15 -25 0 -16 47 -48 60 -40 5 3 31 6 57
6 26 0 70 5 96 11 66 14 100 -2 85 -41 -5 -14 -12 -82 -15 -151 -3 -69 -9
-129 -14 -135 -5 -5 -9 -37 -9 -71 0 -75 -7 -79 -111 -69 -56 6 -74 4 -95 -10
-21 -13 -44 -15 -132 -12 -108 5 -196 18 -210 31 -4 4 -7 33 -7 64 0 31 -5 57
-11 59 -20 7 -58 -34 -60 -63 -1 -16 -3 -32 -3 -37 -1 -4 -61 -4 -135 -1 -100
5 -135 4 -141 -5 -13 -22 11 -33 76 -32 63 0 153 -24 183 -48 11 -10 14 -28
11 -74 -4 -67 10 -141 25 -132 6 3 7 -1 4 -9 -3 -9 -10 -16 -15 -16 -5 0 -9
-9 -9 -20 0 -11 -4 -20 -8 -20 -4 0 -8 -9 -8 -19 0 -11 3 -18 7 -16 3 2 6 -11
7 -30 2 -42 -15 -55 -28 -23 -7 17 -9 9 -4 -32 3 -30 6 -86 7 -125 2 -56 -1
-70 -13 -70 -9 0 -17 13 -21 35 l-6 35 -4 -35 c-4 -32 -7 -35 -44 -42 -22 -4
-208 -5 -414 -2 -294 3 -376 1 -383 -8 -6 -10 -8 -10 -8 0 0 7 -5 10 -11 6
-25 -15 21 -24 128 -24 61 0 124 -5 139 -10 16 -6 127 -11 268 -11 243 0 313
-8 324 -37 5 -13 6 -24 10 -89 3 -35 32 -29 32 6 0 16 3 42 6 59 8 37 26 42
184 47 143 5 127 5 240 -1 146 -7 140 -4 140 -74 l0 -60 410 0 409 0 3 62 3
63 84 3 c61 2 93 -1 118 -13 21 -10 56 -16 91 -15 31 1 112 1 180 1 l122 -1 0
-50 0 -50 313 0 312 1 20 42 c11 23 25 41 30 40 6 -1 15 3 22 8 6 6 51 12 100
15 48 3 101 10 117 15 49 15 111 10 157 -14 24 -12 50 -22 58 -22 8 0 19 -17
25 -40 11 -39 13 -40 61 -43 42 -3 47 -1 36 12 -15 18 -11 71 6 71 6 0 15 3
19 8 4 4 45 7 91 7 l83 0 0 45 c0 50 9 46 -110 49 l-65 1 -3 42 c-2 22 4 58
13 79 11 26 17 83 21 179 3 77 9 144 14 149 4 4 28 8 52 8 85 -2 78 -36 78
375 0 344 -1 365 -17 358 -49 -20 -82 -24 -157 -21 -44 3 -94 9 -111 14 -16 6
-103 13 -192 16 -90 2 -167 7 -173 11 -16 10 -12 115 6 176 9 30 18 99 19 154
2 55 6 132 10 170 8 86 -4 159 -27 163 -9 2 -19 -5 -21 -15z m-667 -437 c0 -8
-14 -16 -37 -18 -45 -6 -49 -4 -32 16 18 19 69 21 69 2z m-1687 -123 c-7 -2
-21 -2 -30 0 -10 3 -4 5 12 5 17 0 24 -2 18 -5z m1682 -154 c18 -55 1 -515
-19 -521 -15 -5 -385 8 -456 17 -158 18 -146 10 -149 90 -1 29 3 74 9 99 5 24
12 102 15 173 4 70 8 129 10 131 18 18 150 30 352 31 228 1 232 1 238 -20z
m980 -20 c39 -1 75 -6 82 -11 11 -9 46 -16 85 -17 23 -1 33 -42 19 -83 -5 -18
-11 -98 -12 -178 -1 -103 -6 -151 -15 -165 -8 -11 -14 -45 -14 -77 0 -47 -3
-58 -19 -63 -23 -7 -121 2 -154 14 -13 5 -80 10 -148 10 -72 1 -143 7 -169 15
l-45 13 -3 58 c-2 39 2 64 12 81 11 16 16 49 16 106 1 53 6 92 15 108 9 15 14
54 15 97 0 104 5 107 149 99 64 -3 148 -7 186 -7z m-1785 -530 c78 -4 90 -14
90 -72 0 -27 -5 -57 -10 -67 -6 -11 -13 -83 -16 -162 -3 -83 -11 -162 -20
-189 -8 -25 -12 -53 -9 -61 3 -8 0 -20 -7 -25 -8 -6 -108 -13 -243 -17 -126
-4 -269 -9 -318 -12 -48 -3 -99 -3 -112 0 -24 6 -25 9 -21 66 3 33 8 65 12 71
4 7 10 39 15 73 8 59 29 156 42 186 3 8 9 54 12 101 4 47 10 90 13 96 4 7 30
13 57 15 55 3 428 1 515 -3z m-1025 -23 c18 -13 17 -14 -11 -32 -53 -33 -94
-81 -94 -111 -1 -15 -7 -39 -15 -53 -20 -34 -18 -53 6 -81 22 -25 19 -60 -6
-86 -16 -15 -19 -43 -9 -81 5 -19 12 -22 30 -18 17 5 24 1 29 -14 4 -13 15
-20 31 -20 13 0 24 -4 24 -8 0 -10 -45 -32 -66 -32 -8 0 -26 -7 -39 -16 -13
-8 -36 -14 -52 -12 l-28 3 -3 88 c-2 49 1 94 7 100 11 15 23 155 22 267 0 109
9 120 94 120 36 0 69 -6 80 -14z m2287 -64 c23 -9 26 -17 30 -66 1 -30 0 -72
-4 -93 -4 -21 -7 -102 -7 -180 -1 -185 15 -173 -236 -173 -104 0 -201 3 -214
7 -22 6 -23 9 -17 62 7 65 22 167 29 196 3 11 8 63 12 115 7 93 18 139 35 150
15 9 344 -6 372 -18z"/>
<path d="M3243 3 c9 -2 23 -2 30 0 6 3 -1 5 -18 5 -16 0 -22 -2 -12 -5z"/>
</g>
</svg>
