<svg width="269" height="263" viewBox="0 0 269 263" fill="none" xmlns="http://www.w3.org/2000/svg">
<path d="M193.102 55.6201C191.145 54.4832 190.48 51.9748 191.617 50.0176L213.137 12.969C214.274 11.0117 216.783 10.3467 218.74 11.4837C220.697 12.6206 221.362 15.129 220.225 17.0862L198.705 54.1348C197.568 56.0921 195.059 56.7571 193.102 55.6201Z" fill="#FFCA3A"/>
<path d="M97.5066 62.6803C95.5008 63.7293 93.0244 62.9536 91.9755 60.9477L72.1207 22.9804C71.0717 20.9746 71.8474 18.4982 73.8533 17.4493C75.8591 16.4003 78.3354 17.1761 79.3844 19.1819L99.2392 57.1492C100.288 59.155 99.5124 61.6314 97.5066 62.6803Z" fill="#FFCA3A"/>
<path d="M64.4257 92.5721C63.0113 94.3393 60.4321 94.6254 58.6649 93.2111L28.7518 69.2716C26.9846 67.8573 26.6985 65.2781 28.1128 63.5108C29.5271 61.7436 32.1063 61.4575 33.8736 62.8718L63.7867 86.8113C65.5539 88.2256 65.84 90.8048 64.4257 92.5721Z" fill="#FFCA3A"/>
<path d="M57.3427 144.693C57.3521 146.957 55.5248 148.799 53.2613 148.809L4.13252 149.013C1.86901 149.022 0.0264477 147.195 0.0170374 144.932C0.00762707 142.668 1.83494 140.825 4.09844 140.816L53.2272 140.612C55.4907 140.602 57.3333 142.43 57.3427 144.693Z" fill="#FFCA3A"/>
<path d="M76.0409 186.546C77.5197 188.26 77.3293 190.848 75.6156 192.327L37.3558 225.342C35.6421 226.821 33.0541 226.631 31.5753 224.917C30.0965 223.203 30.2869 220.615 32.0006 219.136L70.2604 186.121C71.9741 184.642 74.5621 184.832 76.0409 186.546Z" fill="#FFCA3A"/>
<path d="M122.808 220.256C124.815 221.304 125.591 223.78 124.543 225.786L107.241 258.901C106.193 260.908 103.717 261.684 101.711 260.636C99.7047 259.588 98.928 257.112 99.9762 255.106L117.278 221.99C118.326 219.984 120.802 219.207 122.808 220.256Z" fill="#FFCA3A"/>
<path d="M182.39 214.843C184.51 214.049 186.871 215.124 187.665 217.244L200.139 250.562C200.933 252.682 199.858 255.044 197.738 255.837C195.618 256.631 193.256 255.556 192.462 253.436L179.988 220.118C179.195 217.998 180.27 215.636 182.39 214.843Z" fill="#FFCA3A"/>
<path d="M223.146 165.098C224.358 163.187 226.891 162.621 228.802 163.833L265.373 187.038C267.284 188.251 267.85 190.783 266.638 192.695C265.425 194.606 262.892 195.172 260.981 193.959L224.41 170.755C222.499 169.542 221.933 167.009 223.146 165.098Z" fill="#FFCA3A"/>
<path d="M226.163 101.848C225.575 100.169 226.46 98.332 228.138 97.7444L263.833 85.2491C265.511 84.6616 267.349 85.5459 267.936 87.2245C268.524 88.903 267.639 90.74 265.961 91.3276L230.266 103.823C228.588 104.41 226.751 103.526 226.163 101.848Z" fill="#FFCA3A"/>
<path d="M119.745 50.4381C118.104 50.813 116.47 49.7867 116.095 48.1457L114.445 40.9265C114.071 39.2855 115.097 37.6513 116.738 37.2764C118.379 36.9015 120.013 37.9279 120.388 39.5689L122.037 46.788C122.412 48.429 121.386 50.0632 119.745 50.4381Z" fill="#FFCA3A"/>
<path d="M75.5791 78.3764C74.3285 79.603 72.3202 79.5836 71.0936 78.3329L64.4145 71.523C63.1879 70.2724 63.2074 68.2641 64.458 67.0375C65.7087 65.8109 67.717 65.8303 68.9436 67.081L75.6226 73.8909C76.8493 75.1415 76.8298 77.1498 75.5791 78.3764Z" fill="#FFCA3A"/>
<path d="M56.3823 117.464C56.1647 119.202 54.5791 120.435 52.8409 120.217L39.836 118.589C38.0977 118.371 36.865 116.786 37.0826 115.048C37.3002 113.309 38.8857 112.077 40.624 112.294L53.6289 113.922C55.3672 114.14 56.5999 115.725 56.3823 117.464Z" fill="#FFCA3A"/>
<path d="M62.6728 166.525C63.4695 168.085 62.8507 169.996 61.2906 170.793L51.7326 175.674C50.1725 176.471 48.2619 175.852 47.4651 174.292C46.6684 172.731 47.2873 170.821 48.8474 170.024L58.4053 165.143C59.9655 164.346 61.8761 164.965 62.6728 166.525Z" fill="#FFCA3A"/>
<path d="M88.9432 204.468C90.271 205.611 90.421 207.613 89.2783 208.941L78.4203 221.558C77.2776 222.886 75.2749 223.036 73.9471 221.893C72.6193 220.75 72.4693 218.747 73.612 217.42L84.47 204.803C85.6127 203.475 87.6154 203.325 88.9432 204.468Z" fill="#FFCA3A"/>
<path d="M154.812 224.007C156.56 223.893 158.069 225.218 158.184 226.966L159.225 242.902C159.34 244.65 158.015 246.16 156.267 246.274C154.519 246.389 153.009 245.064 152.895 243.316L151.853 227.38C151.739 225.631 153.064 224.122 154.812 224.007Z" fill="#FFCA3A"/>
<path d="M208.045 197.541C209.137 196.172 211.133 195.946 212.503 197.039L224.99 206.995C226.36 208.087 226.585 210.083 225.492 211.453C224.4 212.822 222.405 213.047 221.035 211.955L208.548 201.999C207.178 200.907 206.953 198.911 208.045 197.541Z" fill="#FFCA3A"/>
<path d="M229.028 132.787C229.214 131.045 230.776 129.783 232.518 129.969L252.588 132.106C254.33 132.291 255.592 133.854 255.406 135.596C255.221 137.338 253.658 138.6 251.917 138.414L231.847 136.277C230.105 136.092 228.843 134.529 229.028 132.787Z" fill="#FFCA3A"/>
<path d="M169.989 46.6971C168.306 46.6978 166.941 45.3338 166.94 43.6505L166.935 31.1783C166.934 29.4951 168.298 28.1299 169.981 28.1292C171.664 28.1285 173.03 29.4925 173.03 31.1758L173.036 43.6479C173.036 45.3312 171.672 46.6963 169.989 46.6971Z" fill="#FFCA3A"/>
<path d="M205.205 69.499C203.993 68.3309 203.957 66.4014 205.126 65.1894L218.693 51.1126C219.861 49.9006 221.79 49.8651 223.002 51.0332C224.214 52.2013 224.25 54.1307 223.082 55.3427L209.515 69.4195C208.346 70.6315 206.417 70.6671 205.205 69.499Z" fill="#FFCA3A"/>
<path d="M146.217 46.1997C144.229 46.4339 142.428 45.0123 142.193 43.0244L137.648 4.44766C137.414 2.45977 138.835 0.658381 140.823 0.424148C142.811 0.189916 144.612 1.61154 144.847 3.59942L149.392 42.1762C149.626 44.164 148.205 45.9654 146.217 46.1997Z" fill="#FFCA3A"/>
<path d="M87.4415 87.747C87.4415 87.747 106.092 67.2625 141.863 64.8166C177.634 62.3707 201.176 87.747 201.176 87.747C201.176 87.747 226.247 110.372 223.495 141.557C220.77 172.443 204.549 188.035 196.515 195.756L196.284 195.978C188.335 203.622 166.322 216.157 141.863 216.157C117.404 216.157 101.2 207.902 87.4415 195.978C73.6831 184.055 64.5114 168.156 61.7595 141.557C59.0076 114.958 87.4415 87.747 87.4415 87.747Z" fill="#FFCA3A"/>
</svg>
